<?xml version="1.0" encoding="UTF-8" standalone="no"?>
<svg
   xmlns:dc="http://purl.org/dc/elements/1.1/"
   xmlns:cc="http://creativecommons.org/ns#"
   xmlns:rdf="http://www.w3.org/1999/02/22-rdf-syntax-ns#"
   xmlns:svg="http://www.w3.org/2000/svg"
   xmlns="http://www.w3.org/2000/svg"
   xml:space="preserve"
   enable-background="new 0 0 180 120"
   viewBox="0 0 115.6164 110.83028"
   height="110.83028"
   width="115.6164"
   y="0px"
   x="0px"
   id="Layer_1"
   version="1.1"><metadata
     id="metadata13"><rdf:RDF><cc:Work
         rdf:about=""><dc:format>image/svg+xml</dc:format><dc:type
           rdf:resource="http://purl.org/dc/dcmitype/StillImage" /><dc:title></dc:title></cc:Work></rdf:RDF></metadata><defs
     id="defs11" /><path
     style="fill:#0d7139"
     id="path3"
     d="m 29.632754,85.91328 c -0.306,-0.817 -0.409,-2.759 -0.204,-4.393 0.204,-2.246 1.94,-3.88 7.965,-8.067 8.272,-5.719 10.623,-8.374 9.599,-11.028 -0.51,-1.329 -2.144,-1.634 -8.168,-1.634 l -7.559,0 0,-3.064 0,-3.063 10.622,0 c 11.642,0 12.256,0.306 13.275,6.128 1.125,6.433 -0.408,9.293 -8.475,15.114 l -7.456,5.31 7.251,0 7.252,0 0,3.063 0,3.064 -11.745,0 c -9.294,-10e-4 -11.95,-0.308 -12.357,-1.43 l 0,0 z" /><path
     style="fill:#0d7139"
     id="path5"
     d="m 75.180754,84.78828 c 0,-2.552 -0.104,-2.552 -7.967,-2.552 -8.884,0 -10.417,-0.817 -10.417,-5.617 0,-2.452 1.841,-5.004 8.784,-12.459 8.066,-8.782 9.088,-9.498 12.662,-9.498 4.799,0 5.106,0.715 5.106,12.357 0,8.372 0.103,9.088 2.042,9.088 1.635,0 2.042,0.715 2.042,3.065 0,2.348 -0.407,3.063 -2.042,3.063 -1.532,0 -2.042,0.715 -2.042,2.554 0,2.349 -0.408,2.552 -4.085,2.552 -3.676,0 -4.084,-0.203 -4.084,-2.552 l 0,-0.001 10e-4,0 z m 0,-14.502 0,-5.818 -3.168,3.063 c -1.736,1.633 -4.084,4.187 -5.206,5.821 l -1.94,2.755 5.105,0 5.209,0 0,-5.818 0,-0.003 z" /><path
     style="fill:#edb31f"
     id="path7"
     d="M 114.30375,50.99328 67.246754,3.6472797 c -0.06,-0.062 -0.122,-0.12 -0.188,-0.177 -5.136,-4.613 -12.901,-4.628 -18.06,-0.039 -0.064,0.058 -0.127,0.116 -0.187,0.177 L 1.3277538,50.98028 c -1.76699998,1.761 -1.77099998,4.62 -0.008,6.385 1.764,1.766 4.623,1.768 6.386,0.006 l 3.5850002,-3.575 0,38.978 c 0,9.956 8.105,18.056 18.065,18.056 l 56.906,0 c 9.96,0 18.062996,-8.1 18.062996,-18.056 0,-2.493 -2.021,-4.515 -4.515996,-4.515 -2.496,0 -4.516,2.021 -4.516,4.515 0,4.979 -4.052,9.026 -9.031,9.026 l -56.906,0 c -4.979,0 -9.032,-4.048 -9.032,-9.026 l 0,-47.853 c 0,-0.045 -0.001,-0.09 -0.001,-0.136 l 34.764,-34.681 c 1.691,-1.4350003 4.174,-1.4310003 5.859,0.014 l 34.347,34.559 0,25.524 c 0,2.494 2.02,4.514 4.516,4.514 2.493996,0 4.515996,-2.02 4.515996,-4.514 l 0,-16.436 3.571,3.592 c 0.885,0.887 2.043,1.332 3.204,1.332 1.151,0 2.302,-0.436 3.184,-1.312 1.769,-1.757 1.778,-4.614 0.02,-6.384 z" /></svg>