<?xml version="1.0" encoding="UTF-8" standalone="no"?>
<svg
   xmlns:dc="http://purl.org/dc/elements/1.1/"
   xmlns:cc="http://creativecommons.org/ns#"
   xmlns:rdf="http://www.w3.org/1999/02/22-rdf-syntax-ns#"
   xmlns:svg="http://www.w3.org/2000/svg"
   xmlns="http://www.w3.org/2000/svg"
   xml:space="preserve"
   enable-background="new 0 0 1024 500"
   viewBox="0 0 997.3252 275.49933"
   height="275.49933"
   width="997.3252"
   y="0px"
   x="0px"
   id="Layer_1"
   version="1.1"><metadata
     id="metadata21"><rdf:RDF><cc:Work
         rdf:about=""><dc:format>image/svg+xml</dc:format><dc:type
           rdf:resource="http://purl.org/dc/dcmitype/StillImage" /><dc:title></dc:title></cc:Work></rdf:RDF></metadata><defs
     id="defs19" /><g
     transform="translate(-16.254,-92.737676)"
     id="Слой_x0020_1"><path
       style="fill:#127139"
       id="path4"
       d="m 798.629,303.575 c -0.762,-2.015 -1.016,-6.799 -0.508,-10.827 0.508,-5.539 4.844,-9.566 19.875,-19.889 20.642,-14.096 26.505,-20.642 23.951,-27.185 -1.271,-3.275 -5.35,-4.028 -20.381,-4.028 l -18.857,0 0,-7.556 0,-7.55 26.498,0 c 29.051,0 30.582,0.755 33.129,15.106 2.805,15.857 -1.02,22.908 -21.149,37.258 l -18.604,13.089 18.094,0 18.095,0 0,7.552 0,7.554 -29.307,0 c -23.192,0 -29.818,-0.756 -30.836,-3.524 l 0,0 z" /><path
       style="fill:#127139"
       id="path6"
       d="m 912.283,300.804 c 0,-6.292 -0.255,-6.292 -19.877,-6.292 -22.169,0 -25.992,-2.015 -25.992,-13.848 0,-6.043 4.59,-12.334 21.918,-30.71 20.128,-21.651 22.677,-23.415 31.595,-23.415 11.974,0 12.74,1.764 12.74,30.463 0,20.639 0.258,22.4 5.098,22.4 4.078,0 5.094,1.764 5.094,7.558 0,5.788 -1.016,7.552 -5.094,7.552 -3.823,0 -5.098,1.761 -5.098,6.296 0,5.789 -1.017,6.291 -10.192,6.291 -9.173,0 -10.191,-0.502 -10.191,-6.291 l 0,-0.004 -10e-4,0 z m 0,-35.749 0,-14.345 -7.9,7.552 c -4.335,4.025 -10.194,10.32 -12.994,14.35 l -4.841,6.791 12.739,0 12.996,0 0,-14.342 0,-0.006 z" /><g
       id="_298153792"><path
         style="fill:#127139"
         d="m 126.773,232.196 c 0.151,-0.424 0.382,-0.893 0.639,-1.414 0.284,-0.547 0.592,-0.987 0.925,-1.388 0.341,-0.397 0.703,-0.597 1.056,-0.625 0.238,-0.02 0.469,0.053 0.776,0.176 0.287,0.149 0.518,0.424 0.747,0.87 0.206,0.469 0.338,1.142 0.338,2.079 l -0.622,81.102 20.404,0 0,-91.662 c -0.024,-3.176 -0.796,-5.754 -2.287,-7.789 -1.5,-2.01 -3.558,-3.499 -6.187,-4.462 -2.605,-0.971 -5.615,-1.444 -8.992,-1.444 -1.954,-0.021 -3.837,0.126 -5.645,0.453 -1.773,0.339 -3.474,0.963 -5.068,1.88 -1.603,0.945 -3.098,2.28 -4.486,4.066 -1.364,1.784 -2.653,4.117 -3.813,6.995 l -27.974,69.491 c -0.468,1.141 -0.958,2.059 -1.467,2.779 -0.518,0.691 -1.01,1.065 -1.471,1.089 -0.464,-0.023 -0.956,-0.397 -1.465,-1.089 -0.519,-0.721 -1.007,-1.639 -1.471,-2.779 L 52.731,221.033 c -1.159,-2.878 -2.42,-5.211 -3.809,-6.995 -1.393,-1.784 -2.887,-3.122 -4.481,-4.066 -1.602,-0.919 -3.274,-1.541 -5.078,-1.88 -1.774,-0.327 -3.654,-0.474 -5.643,-0.453 -0.64,-0.021 -1.647,0.024 -3.011,0.126 -1.343,0.102 -2.839,0.37 -4.461,0.795 -1.647,0.42 -3.217,1.138 -4.742,2.104 -1.514,0.965 -2.755,2.31 -3.732,4.042 -0.978,1.711 -1.496,3.919 -1.52,6.624 l 0,91.665 20.402,0 -0.466,-81.102 c 0,-0.177 0,-0.52 0.057,-1.013 0.05,-0.495 0.201,-0.971 0.459,-1.42 0.234,-0.414 0.622,-0.665 1.189,-0.692 0.307,0.027 0.644,0.228 0.982,0.625 0.356,0.401 0.668,0.841 0.976,1.388 0.284,0.521 0.515,0.989 0.671,1.414 l 27.666,69.49 c 1.261,3.246 2.551,5.781 3.861,7.613 1.344,1.815 2.917,3.099 4.741,3.819 1.833,0.744 4.1,1.086 6.855,1.067 2.215,0 4.12,-0.201 5.669,-0.647 1.569,-0.42 2.913,-1.113 4.047,-2.08 1.105,-0.969 2.111,-2.26 3.011,-3.869 0.93,-1.587 1.828,-3.57 2.732,-5.903 l 27.67,-69.49 -0.003,0 0,0.001 z"
         id="_231766824" /><path
         style="fill:#127139"
         d="m 207.92,233.236 c -2.449,-0.024 -5.126,0.023 -8.016,0.173 -2.878,0.129 -5.817,0.449 -8.807,0.972 -2.991,0.518 -5.903,1.361 -8.68,2.499 -2.785,1.142 -5.307,2.705 -7.574,4.691 -2.345,2.158 -4.203,4.609 -5.619,7.36 -1.418,2.758 -2.474,5.632 -3.167,8.606 -0.721,2.979 -1.188,5.879 -1.419,8.708 -0.234,2.802 -0.336,5.354 -0.307,7.615 -0.029,2.031 0.073,4.416 0.287,7.093 0.203,2.703 0.641,5.529 1.306,8.458 0.703,2.928 1.754,5.777 3.175,8.552 1.413,2.782 3.32,5.258 5.744,7.441 2.267,1.96 4.789,3.496 7.574,4.664 2.777,1.141 5.689,1.984 8.68,2.527 2.99,0.55 5.924,0.917 8.807,1.066 2.889,0.177 5.567,0.25 8.016,0.225 2.395,0.025 5.024,-0.048 7.907,-0.225 2.888,-0.149 5.849,-0.517 8.865,-1.066 3.04,-0.543 5.952,-1.387 8.758,-2.527 2.806,-1.168 5.307,-2.704 7.547,-4.664 2.037,-1.81 3.84,-4.19 5.41,-7.069 1.574,-2.899 2.813,-6.421 3.713,-10.563 0.9,-4.116 1.364,-8.979 1.393,-14.509 0.021,-2.113 -0.078,-4.539 -0.308,-7.269 -0.234,-2.752 -0.7,-5.577 -1.417,-8.527 -0.698,-2.953 -1.755,-5.779 -3.167,-8.53 -1.396,-2.759 -3.274,-5.21 -5.624,-7.368 -2.269,-1.982 -4.786,-3.542 -7.571,-4.687 -2.782,-1.142 -5.671,-1.985 -8.685,-2.503 -2.986,-0.523 -5.923,-0.843 -8.807,-0.969 -2.884,-0.146 -5.538,-0.2 -8.011,-0.176 l -0.003,0 0,0.002 z m -24.889,40.477 c -0.022,-1.295 0,-2.827 0.082,-4.594 0.073,-1.782 0.254,-3.644 0.562,-5.604 0.309,-1.961 0.798,-3.865 1.521,-5.699 0.699,-1.861 1.676,-3.5 2.938,-4.938 1.749,-1.856 3.757,-3.251 6.083,-4.143 2.316,-0.892 4.688,-1.49 7.107,-1.733 2.394,-0.275 4.588,-0.4 6.597,-0.374 2.189,-0.026 4.457,0.099 6.798,0.374 2.345,0.243 4.638,0.841 6.853,1.733 2.218,0.892 4.202,2.286 5.976,4.143 1.881,2.057 3.167,4.34 3.915,6.815 0.724,2.484 1.164,4.939 1.265,7.391 0.1,2.434 0.127,4.637 0.078,6.629 0.022,2.303 -0.028,4.631 -0.208,6.988 -0.152,2.377 -0.616,4.688 -1.392,6.949 -0.768,2.256 -2.033,4.334 -3.812,6.298 -1.799,1.909 -3.785,3.321 -5.948,4.262 -2.137,0.969 -4.354,1.591 -6.647,1.894 -2.292,0.292 -4.588,0.414 -6.876,0.393 -2.193,0.021 -4.461,-0.101 -6.803,-0.393 -2.345,-0.303 -4.643,-0.925 -6.856,-1.894 -2.214,-0.94 -4.198,-2.353 -5.972,-4.262 -1.677,-1.912 -2.889,-4.02 -3.636,-6.298 -0.748,-2.309 -1.208,-4.639 -1.394,-7.045 -0.183,-2.38 -0.257,-4.685 -0.231,-6.892 l 0,0 z"
         id="_2317668241" /><path
         style="fill:#127139"
         d="m 341.931,312.989 0,-67.699 c -0.05,-2.901 -0.539,-5.184 -1.517,-6.847 -0.953,-1.662 -2.14,-2.854 -3.504,-3.598 -1.363,-0.744 -2.707,-1.191 -3.968,-1.39 -1.29,-0.17 -2.244,-0.245 -2.913,-0.22 -1.236,-0.024 -2.521,0.125 -3.812,0.397 -1.286,0.272 -2.575,0.816 -3.812,1.585 -1.233,0.771 -2.419,1.913 -3.505,3.375 l -36.477,51.633 c -0.309,0.473 -0.622,0.945 -0.979,1.387 -0.336,0.424 -0.723,0.672 -1.187,0.696 -0.593,0 -0.953,-0.173 -1.081,-0.548 -0.127,-0.347 -0.182,-0.866 -0.152,-1.535 l 0.767,-56.098 -18.077,0 0,68.596 c -0.028,1.066 0.099,2.237 0.357,3.499 0.254,1.264 0.797,2.479 1.597,3.647 0.797,1.167 1.98,2.106 3.583,2.852 1.594,0.742 3.704,1.141 6.359,1.165 2.032,0 3.763,-0.225 5.151,-0.693 1.364,-0.472 2.576,-1.17 3.604,-2.086 1.034,-0.913 2.041,-2.079 2.994,-3.471 L 321.374,256.9 c 0.62,-0.871 1.084,-1.441 1.44,-1.715 0.338,-0.277 0.567,-0.4 0.723,-0.376 0.593,0 0.903,0.198 0.924,0.596 0.054,0.374 0.054,0.872 0,1.495 l -0.615,56.096 18.083,0 0,-0.007 0.002,0 z M 302.054,219.84 c -1.802,0.03 -3.635,-0.197 -5.517,-0.666 -1.852,-0.496 -3.578,-1.464 -5.15,-2.903 -0.567,-0.568 -1.104,-1.217 -1.623,-1.958 -0.518,-0.747 -0.953,-1.515 -1.339,-2.283 -0.387,-0.794 -0.695,-1.512 -0.905,-2.156 l -14.061,0 c 0.563,1.909 1.315,3.813 2.214,5.706 0.903,1.904 1.901,3.668 3.04,5.279 1.128,1.64 2.317,2.978 3.554,4.044 2.036,1.712 4.227,2.968 6.567,3.816 2.348,0.843 4.664,1.387 6.96,1.636 2.287,0.247 4.379,0.373 6.26,0.348 1.881,0.025 3.965,-0.101 6.261,-0.348 2.293,-0.249 4.612,-0.793 6.955,-1.636 2.345,-0.849 4.531,-2.112 6.568,-3.816 1.236,-1.067 2.421,-2.405 3.553,-4.044 1.135,-1.611 2.141,-3.375 3.04,-5.279 0.904,-1.893 1.647,-3.797 2.215,-5.706 l -14.062,0 c -0.208,0.644 -0.518,1.362 -0.903,2.156 -0.391,0.769 -0.826,1.537 -1.34,2.283 -0.517,0.741 -1.06,1.389 -1.623,1.958 -1.574,1.438 -3.303,2.407 -5.15,2.903 -1.882,0.469 -3.714,0.696 -5.514,0.666 z"
         id="_23176682412" /><path
         style="fill:#127139"
         d="m 391.704,297.366 -9.12,0 0,15.63 125.665,0 0,-15.63 -9.122,0 -36.324,-78.714 c -1.1,-2.48 -2.394,-4.54 -3.861,-6.172 -1.471,-1.617 -3.295,-2.827 -5.461,-3.648 -2.161,-0.794 -4.82,-1.195 -7.983,-1.195 -3.613,0.027 -6.548,0.554 -8.762,1.542 -2.214,0.991 -3.968,2.306 -5.254,3.967 -1.315,1.661 -2.422,3.498 -3.298,5.506 l -36.48,78.714 z m 51.159,-67.551 c 0.102,-0.325 0.289,-0.748 0.547,-1.243 0.251,-0.517 0.563,-0.965 0.924,-1.39 0.363,-0.394 0.744,-0.622 1.158,-0.642 0.411,0.02 0.768,0.248 1.087,0.642 0.302,0.424 0.584,0.873 0.822,1.39 0.231,0.495 0.407,0.919 0.564,1.243 l 30.297,67.551 -65.696,0 30.297,-67.551 0,0 z"
         id="_231766824123" /><path
         style="fill:#127139"
         d="m 554.316,233.236 c -2.453,-0.024 -5.13,0.023 -8.016,0.173 -2.882,0.129 -5.822,0.449 -8.811,0.972 -2.989,0.518 -5.903,1.361 -8.682,2.499 -2.785,1.142 -5.306,2.705 -7.574,4.691 -2.344,2.158 -4.199,4.609 -5.619,7.36 -1.42,2.758 -2.473,5.632 -3.165,8.606 -0.719,2.979 -1.188,5.879 -1.42,8.708 -0.233,2.802 -0.336,5.354 -0.306,7.615 -0.03,2.031 0.072,4.416 0.286,7.093 0.203,2.703 0.639,5.529 1.305,8.458 0.698,2.928 1.755,5.777 3.179,8.552 1.412,2.782 3.322,5.258 5.74,7.441 2.269,1.96 4.789,3.496 7.574,4.664 2.778,1.141 5.692,1.984 8.682,2.527 2.988,0.55 5.923,0.917 8.811,1.066 2.886,0.177 5.563,0.25 8.016,0.225 2.391,0.025 5.02,-0.048 7.906,-0.225 2.888,-0.149 5.85,-0.517 8.865,-1.066 3.036,-0.543 5.95,-1.387 8.756,-2.527 2.806,-1.168 5.306,-2.704 7.548,-4.664 2.037,-1.81 3.838,-4.19 5.407,-7.069 1.575,-2.899 2.813,-6.421 3.715,-10.563 0.897,-4.116 1.366,-8.979 1.394,-14.509 0.021,-2.113 -0.081,-4.539 -0.306,-7.269 -0.238,-2.752 -0.7,-5.577 -1.426,-8.527 -0.693,-2.953 -1.746,-5.779 -3.167,-8.53 -1.392,-2.759 -3.268,-5.21 -5.617,-7.368 -2.27,-1.982 -4.789,-3.542 -7.575,-4.687 -2.778,-1.142 -5.664,-1.985 -8.681,-2.503 -2.988,-0.523 -5.924,-0.843 -8.812,-0.969 -2.878,-0.144 -5.535,-0.199 -8.007,-0.174 l 0,0 0,0 z m -24.889,40.477 c -0.021,-1.295 0,-2.827 0.081,-4.594 0.074,-1.782 0.259,-3.644 0.564,-5.604 0.306,-1.961 0.794,-3.865 1.515,-5.699 0.699,-1.861 1.677,-3.5 2.941,-4.938 1.752,-1.856 3.764,-3.251 6.079,-4.143 2.316,-0.892 4.688,-1.49 7.105,-1.733 2.404,-0.275 4.593,-0.4 6.604,-0.374 2.186,-0.026 4.456,0.099 6.799,0.374 2.344,0.243 4.634,0.841 6.855,1.733 2.214,0.892 4.198,2.286 5.971,4.143 1.882,2.057 3.165,4.34 3.919,6.815 0.721,2.484 1.155,4.939 1.257,7.391 0.102,2.434 0.129,4.637 0.082,6.629 0.02,2.303 -0.027,4.631 -0.211,6.988 -0.149,2.377 -0.618,4.688 -1.386,6.949 -0.774,2.256 -2.038,4.334 -3.818,6.298 -1.8,1.909 -3.782,3.321 -5.95,4.262 -2.134,0.969 -4.354,1.591 -6.644,1.894 -2.296,0.292 -4.585,0.414 -6.874,0.393 -2.194,0.021 -4.463,-0.101 -6.808,-0.393 -2.344,-0.303 -4.639,-0.925 -6.854,-1.894 -2.215,-0.94 -4.198,-2.353 -5.971,-4.262 -1.679,-1.912 -2.894,-4.02 -3.635,-6.298 -0.754,-2.309 -1.21,-4.639 -1.398,-7.045 -0.175,-2.38 -0.251,-4.685 -0.223,-6.892 l 0,0 0,0 z"
         id="_2317668241234" /><path
         style="fill:#127139"
         d="m 690.482,256.147 c 0.189,-0.35 0.387,-0.712 0.652,-1.108 0.251,-0.426 0.517,-0.646 0.747,-0.674 0.184,0 0.359,0.149 0.591,0.4 0.204,0.273 0.306,0.64 0.339,1.087 l -0.781,57.144 18.09,0 0,-68.454 c -0.026,-2.576 -0.693,-4.708 -1.982,-6.372 -1.318,-1.66 -3.017,-2.9 -5.129,-3.718 -2.133,-0.819 -4.429,-1.216 -6.956,-1.216 -2.27,-0.024 -4.28,0.248 -6.046,0.767 -1.76,0.548 -3.309,1.444 -4.592,2.68 -1.313,1.24 -2.392,2.929 -3.274,5.033 l -20.705,50.147 c -0.102,0.274 -0.319,0.646 -0.571,1.141 -0.258,0.496 -0.569,0.945 -0.876,1.34 -0.313,0.399 -0.618,0.621 -0.876,0.646 -0.266,-0.024 -0.563,-0.246 -0.876,-0.646 -0.313,-0.395 -0.619,-0.844 -0.877,-1.34 -0.258,-0.495 -0.463,-0.866 -0.571,-1.141 l -20.711,-50.147 c -0.87,-2.104 -1.956,-3.793 -3.274,-5.033 -1.284,-1.236 -2.826,-2.132 -4.579,-2.68 -1.779,-0.519 -3.79,-0.791 -6.059,-0.767 -2.493,0 -4.816,0.397 -6.956,1.216 -2.106,0.818 -3.812,2.058 -5.096,3.718 -1.317,1.66 -1.982,3.796 -2.011,6.372 l 0,68.454 18.084,0 -0.768,-57.144 c -0.034,-0.245 0.02,-0.522 0.102,-0.845 0.102,-0.296 0.388,-0.469 0.821,-0.493 0.307,0.048 0.564,0.251 0.795,0.646 0.211,0.397 0.367,0.72 0.441,0.987 l 21.025,51.189 c 0.414,1.066 1.005,2.086 1.827,3.078 0.821,0.991 1.936,1.833 3.349,2.479 1.412,0.645 3.193,0.969 5.326,0.993 2.174,-0.024 3.946,-0.349 5.338,-0.993 1.414,-0.646 2.521,-1.487 3.35,-2.479 0.823,-0.992 1.44,-2.012 1.827,-3.078 l 20.862,-51.189 0,0 0,0 z"
         id="_23176682412345" /></g></g><path
     style="fill:#edb31f"
     id="path15"
     d="M 994.062,126.76032 877.091,9.0663236 c -0.149,-0.154 -0.306,-0.299 -0.466,-0.441 -12.771,-11.465 -32.072,-11.504 -44.896,-0.095 -0.16,0.142 -0.316,0.288 -0.465,0.437 L 713.228,126.72532 c -4.392,4.38 -4.402,11.486 -0.02,15.869 4.385,4.39 11.49,4.396 15.875,0.016 l 8.909,-8.884 0,96.888 c 0,24.751 20.147,44.885 44.908,44.885 l 141.453,0 c 24.762,0 44.902,-20.134 44.902,-44.885 0,-6.195 -5.025,-11.22 -11.226,-11.22 -6.202,0 -11.226,5.024 -11.226,11.22 0,12.376 -10.071,22.44 -22.451,22.44 l -141.451,0 c -12.379,0 -22.451,-10.064 -22.451,-22.44 l 0,-118.948 c 0,-0.114 -0.003,-0.224 -0.003,-0.338 l 86.416,-86.210996 c 4.206,-3.567 10.374,-3.557 14.563,0.033 l 85.38,85.907996 0,63.449 c 0,6.197 5.023,11.221 11.226,11.221 6.2,0 11.226,-5.023 11.226,-11.221 l 0,-40.858 8.878,8.93 c 2.197,2.207 5.078,3.312 7.964,3.312 2.862,0 5.722,-1.085 7.913,-3.26 4.395,-4.371 4.421,-11.473 0.049,-15.871 z" /></svg>